<svg xmlns="http://www.w3.org/2000/svg" xmlns:xlink="http://www.w3.org/1999/xlink" width="500" zoomAndPan="magnify" viewBox="0 0 375 374.999991" height="500" preserveAspectRatio="xMidYMid meet" version="1.0"><defs><g/><clipPath id="971eb0303d"><path d="M 51 233 L 130 233 L 130 256.796875 L 51 256.796875 Z M 51 233 " clip-rule="nonzero"/></clipPath><clipPath id="0e3039780d"><path d="M 56 233 L 62 233 L 62 256.796875 L 56 256.796875 Z M 56 233 " clip-rule="nonzero"/></clipPath><clipPath id="f03abee51c"><path d="M 67 233 L 73 233 L 73 256.796875 L 67 256.796875 Z M 67 233 " clip-rule="nonzero"/></clipPath><clipPath id="a85bec1cdd"><path d="M 77 233 L 83 233 L 83 256.796875 L 77 256.796875 Z M 77 233 " clip-rule="nonzero"/></clipPath><clipPath id="5de1d11ec2"><path d="M 88 233 L 94 233 L 94 256.796875 L 88 256.796875 Z M 88 233 " clip-rule="nonzero"/></clipPath><clipPath id="72589bc2e2"><path d="M 98 233 L 104 233 L 104 256.796875 L 98 256.796875 Z M 98 233 " clip-rule="nonzero"/></clipPath><clipPath id="33b60330d5"><path d="M 109 233 L 115 233 L 115 256.796875 L 109 256.796875 Z M 109 233 " clip-rule="nonzero"/></clipPath><clipPath id="9ab82f280d"><path d="M 119 233 L 126 233 L 126 256.796875 L 119 256.796875 Z M 119 233 " clip-rule="nonzero"/></clipPath><clipPath id="81926b301a"><path d="M 49.757812 230 L 132 230 L 132 235 L 49.757812 235 Z M 49.757812 230 " clip-rule="nonzero"/></clipPath><clipPath id="096c9c0075"><path d="M 54 179.546875 L 128 179.546875 L 128 206 L 54 206 Z M 54 179.546875 " clip-rule="nonzero"/></clipPath><clipPath id="c6afb3f0cf"><path d="M 88 179.546875 L 94 179.546875 L 94 206 L 88 206 Z M 88 179.546875 " clip-rule="nonzero"/></clipPath></defs><g clip-path="url(#971eb0303d)"><path fill="#004aad" d="M 51.859375 233.320312 L 129.785156 233.320312 L 129.785156 257.054688 L 51.859375 257.054688 Z M 51.859375 233.320312 " fill-opacity="1" fill-rule="evenodd"/></g><g clip-path="url(#0e3039780d)"><path fill="#004aad" d="M 56.625 233.320312 L 61.898438 233.320312 L 61.898438 257.054688 L 56.625 257.054688 Z M 56.625 233.320312 " fill-opacity="1" fill-rule="evenodd"/></g><g clip-path="url(#f03abee51c)"><path fill="#004aad" d="M 67.144531 233.320312 L 72.417969 233.320312 L 72.417969 257.054688 L 67.144531 257.054688 Z M 67.144531 233.320312 " fill-opacity="1" fill-rule="evenodd"/></g><g clip-path="url(#a85bec1cdd)"><path fill="#004aad" d="M 77.664062 233.320312 L 82.9375 233.320312 L 82.9375 257.054688 L 77.664062 257.054688 Z M 77.664062 233.320312 " fill-opacity="1" fill-rule="evenodd"/></g><g clip-path="url(#5de1d11ec2)"><path fill="#004aad" d="M 88.1875 233.320312 L 93.457031 233.320312 L 93.457031 257.054688 L 88.1875 257.054688 Z M 88.1875 233.320312 " fill-opacity="1" fill-rule="evenodd"/></g><g clip-path="url(#72589bc2e2)"><path fill="#004aad" d="M 98.707031 233.320312 L 103.980469 233.320312 L 103.980469 257.054688 L 98.707031 257.054688 Z M 98.707031 233.320312 " fill-opacity="1" fill-rule="evenodd"/></g><g clip-path="url(#33b60330d5)"><path fill="#004aad" d="M 109.226562 233.320312 L 114.5 233.320312 L 114.5 257.054688 L 109.226562 257.054688 Z M 109.226562 233.320312 " fill-opacity="1" fill-rule="evenodd"/></g><g clip-path="url(#9ab82f280d)"><path fill="#004aad" d="M 119.746094 233.320312 L 125.019531 233.320312 L 125.019531 257.054688 L 119.746094 257.054688 Z M 119.746094 233.320312 " fill-opacity="1" fill-rule="evenodd"/></g><g clip-path="url(#81926b301a)"><path fill="#004aad" d="M 51.710938 230.550781 L 129.933594 230.550781 C 130.996094 230.550781 131.863281 231.417969 131.863281 232.480469 C 131.863281 233.542969 130.996094 234.410156 129.933594 234.410156 L 51.710938 234.410156 C 50.648438 234.410156 49.78125 233.542969 49.78125 232.480469 C 49.78125 231.417969 50.648438 230.550781 51.710938 230.550781 Z M 51.710938 230.550781 " fill-opacity="1" fill-rule="evenodd"/></g><path fill="#004aad" d="M 56.617188 204.617188 L 58.472656 204.617188 L 58.472656 231.023438 L 56.617188 231.023438 Z M 56.617188 204.617188 " fill-opacity="1" fill-rule="evenodd"/><path fill="#004aad" d="M 123.171875 204.617188 L 125.027344 204.617188 L 125.027344 231.023438 L 123.171875 231.023438 Z M 123.171875 204.617188 " fill-opacity="1" fill-rule="evenodd"/><g clip-path="url(#096c9c0075)"><path fill="#004aad" d="M 90.820312 179.546875 L 127.414062 205.257812 L 54.230469 205.257812 L 72.527344 192.402344 Z M 90.820312 179.546875 " fill-opacity="1" fill-rule="evenodd"/></g><path fill="#004aad" d="M 65.769531 205.257812 L 61.203125 205.257812 L 61.203125 200.359375 L 65.769531 197.152344 Z M 65.769531 205.257812 " fill-opacity="1" fill-rule="evenodd"/><path fill="#004aad" d="M 74.882812 205.257812 L 70.316406 205.257812 L 70.316406 193.957031 L 72.527344 192.402344 L 74.882812 190.75 Z M 74.882812 205.257812 " fill-opacity="1" fill-rule="evenodd"/><path fill="#004aad" d="M 83.992188 205.257812 L 79.425781 205.257812 L 79.425781 187.554688 L 83.992188 184.34375 Z M 83.992188 205.257812 " fill-opacity="1" fill-rule="evenodd"/><g clip-path="url(#c6afb3f0cf)"><path fill="#004aad" d="M 90.820312 179.546875 L 93.105469 181.152344 L 93.105469 205.257812 L 88.539062 205.257812 L 88.539062 181.152344 Z M 90.820312 179.546875 " fill-opacity="1" fill-rule="evenodd"/></g><path fill="#004aad" d="M 97.652344 184.34375 L 102.21875 187.554688 L 102.21875 205.257812 L 97.652344 205.257812 Z M 97.652344 184.34375 " fill-opacity="1" fill-rule="evenodd"/><path fill="#004aad" d="M 106.761719 190.75 L 109.117188 192.402344 L 111.328125 193.957031 L 111.328125 205.257812 L 106.761719 205.257812 Z M 106.761719 190.75 " fill-opacity="1" fill-rule="evenodd"/><path fill="#004aad" d="M 115.875 197.152344 L 120.441406 200.359375 L 120.441406 205.257812 L 115.875 205.257812 Z M 115.875 197.152344 " fill-opacity="1" fill-rule="evenodd"/><g fill="#000000" fill-opacity="1"><g transform="translate(37.500002, 173.430399)"><g><path d="M 2.5625 0 C 1.84375 0 1.234375 -0.3125 0.734375 -0.9375 C 0.242188 -1.570312 0 -2.160156 0 -2.703125 L 0.140625 -44.953125 C 0.140625 -46.847656 1.125 -47.796875 3.09375 -47.796875 L 13.609375 -47.71875 C 18.015625 -47.675781 21.878906 -47.375 25.203125 -46.8125 C 28.535156 -46.25 31.144531 -45.09375 33.03125 -43.34375 C 35.144531 -41.40625 36.300781 -38.804688 36.5 -35.546875 C 36.695312 -32.296875 35.695312 -28.671875 33.5 -24.671875 C 35.164062 -23.773438 36.476562 -22.492188 37.4375 -20.828125 C 38.40625 -19.160156 39.023438 -17.347656 39.296875 -15.390625 C 39.566406 -13.441406 39.476562 -11.523438 39.03125 -9.640625 C 38.582031 -7.753906 37.75 -6.160156 36.53125 -4.859375 C 35.226562 -3.460938 33.664062 -2.40625 31.84375 -1.6875 C 30.03125 -0.96875 27.796875 -0.484375 25.140625 -0.234375 C 22.492188 0.015625 19.328125 0.125 15.640625 0.09375 C 11.953125 0.0703125 7.59375 0.0390625 2.5625 0 Z M 15.578125 -10.984375 L 19.34375 -10.984375 C 20.644531 -10.984375 21.722656 -11.253906 22.578125 -11.796875 C 23.429688 -12.335938 23.992188 -13.007812 24.265625 -13.8125 C 24.535156 -14.625 24.429688 -15.410156 23.953125 -16.171875 C 23.484375 -16.941406 22.585938 -17.550781 21.265625 -18 C 19.941406 -18.445312 18.085938 -18.601562 15.703125 -18.46875 Z M 15.90625 -28.515625 C 17.925781 -28.515625 19.394531 -28.941406 20.3125 -29.796875 C 21.238281 -30.648438 21.664062 -31.601562 21.59375 -32.65625 C 21.53125 -33.71875 21.023438 -34.609375 20.078125 -35.328125 C 19.140625 -36.046875 17.796875 -36.269531 16.046875 -36 Z M 15.90625 -28.515625 "/></g></g></g><g fill="#000000" fill-opacity="1"><g transform="translate(79.629386, 173.430399)"><g><path d="M 22.375 1.21875 C 20.894531 1.21875 20.265625 0.25 20.484375 -1.6875 C 16.804688 0.519531 13.035156 1.351562 9.171875 0.8125 C 6.960938 0.5 5.207031 -0.128906 3.90625 -1.078125 C 2.601562 -2.023438 1.660156 -3.140625 1.078125 -4.421875 C 0.492188 -5.703125 0.164062 -7.015625 0.09375 -8.359375 C 0.03125 -9.703125 0.0859375 -10.9375 0.265625 -12.0625 C 0.628906 -13.90625 1.492188 -15.441406 2.859375 -16.671875 C 4.234375 -17.910156 5.894531 -18.878906 7.84375 -19.578125 C 9.800781 -20.273438 11.769531 -20.671875 13.75 -20.765625 L 20.484375 -21.171875 C 20.398438 -22.421875 20.289062 -23.414062 20.15625 -24.15625 C 20.019531 -24.90625 19.644531 -25.425781 19.03125 -25.71875 C 18.425781 -26.007812 17.296875 -26.132812 15.640625 -26.09375 C 14.878906 -26.09375 14.304688 -25.890625 13.921875 -25.484375 C 13.535156 -25.078125 13.21875 -24.625 12.96875 -24.125 C 12.726562 -23.632812 12.460938 -23.207031 12.171875 -22.84375 C 11.878906 -22.488281 11.441406 -22.359375 10.859375 -22.453125 L 3.578125 -23.390625 C 2.941406 -23.484375 2.457031 -23.628906 2.125 -23.828125 C 1.789062 -24.023438 1.625 -24.394531 1.625 -24.9375 C 1.625 -26.601562 1.835938 -28.144531 2.265625 -29.5625 C 2.691406 -30.976562 3.566406 -32.210938 4.890625 -33.265625 C 6.210938 -34.316406 8.203125 -35.132812 10.859375 -35.71875 C 13.640625 -36.351562 16.332031 -36.644531 18.9375 -36.59375 C 21.539062 -36.550781 23.910156 -36.132812 26.046875 -35.34375 C 28.179688 -34.5625 29.929688 -33.363281 31.296875 -31.75 C 32.671875 -30.132812 33.519531 -28.046875 33.84375 -25.484375 C 33.882812 -25.117188 33.925781 -23.800781 33.96875 -21.53125 C 34.019531 -19.257812 34.066406 -16.335938 34.109375 -12.765625 C 34.148438 -9.203125 34.171875 -5.257812 34.171875 -0.9375 C 34.265625 -0.3125 34.050781 0.1875 33.53125 0.5625 C 33.019531 0.945312 32.5625 1.140625 32.15625 1.140625 Z M 18.203125 -14.625 C 16.804688 -14.625 15.769531 -14.265625 15.09375 -13.546875 C 14.425781 -12.828125 14.101562 -11.984375 14.125 -11.015625 C 14.144531 -10.054688 14.515625 -9.21875 15.234375 -8.5 C 15.953125 -7.78125 17.007812 -7.421875 18.40625 -7.421875 C 19.207031 -7.421875 19.609375 -7.734375 19.609375 -8.359375 L 19.609375 -13.6875 C 19.609375 -14.3125 19.140625 -14.625 18.203125 -14.625 Z M 18.203125 -14.625 "/></g></g></g><g fill="#000000" fill-opacity="1"><g transform="translate(116.501027, 173.430399)"><g><path d="M 2.421875 0.140625 C 1.835938 0.140625 1.300781 -0.109375 0.8125 -0.609375 C 0.363281 -1.054688 0.140625 -1.6875 0.140625 -2.5 L 0 -34.109375 C 0 -34.734375 0.242188 -35.335938 0.734375 -35.921875 C 1.234375 -36.460938 1.753906 -36.734375 2.296875 -36.734375 L 11.25 -36.671875 C 11.882812 -36.671875 12.445312 -36.421875 12.9375 -35.921875 C 13.382812 -35.429688 13.609375 -34.804688 13.609375 -34.046875 C 14.378906 -34.898438 15.300781 -35.617188 16.375 -36.203125 C 17.457031 -36.785156 18.785156 -37.078125 20.359375 -37.078125 C 22.609375 -37.078125 24.582031 -36.59375 26.28125 -35.625 C 27.988281 -34.65625 29.628906 -33.429688 31.203125 -31.953125 C 31.703125 -31.503906 31.960938 -30.972656 31.984375 -30.359375 C 32.003906 -29.753906 31.835938 -29.179688 31.484375 -28.640625 L 27.640625 -22.515625 C 27.273438 -21.929688 26.722656 -21.570312 25.984375 -21.4375 C 25.242188 -21.300781 24.535156 -21.410156 23.859375 -21.765625 C 23.234375 -22.128906 22.628906 -22.390625 22.046875 -22.546875 C 21.460938 -22.703125 20.8125 -22.78125 20.09375 -22.78125 C 17.84375 -22.78125 16.300781 -22.34375 15.46875 -21.46875 C 14.632812 -20.59375 14.148438 -19.523438 14.015625 -18.265625 L 14.359375 -2.625 C 14.453125 -1.90625 14.226562 -1.273438 13.6875 -0.734375 C 13.238281 -0.203125 12.675781 0.0625 12 0.0625 Z M 2.421875 0.140625 "/></g></g></g><g fill="#000000" fill-opacity="1"><g transform="translate(151.148236, 173.430399)"><g><path d="M 2.421875 0.140625 C 1.835938 0.140625 1.300781 -0.109375 0.8125 -0.609375 C 0.363281 -1.054688 0.140625 -1.6875 0.140625 -2.5 L 0 -34.109375 C 0 -34.734375 0.242188 -35.335938 0.734375 -35.921875 C 1.234375 -36.460938 1.753906 -36.734375 2.296875 -36.734375 L 11.25 -36.671875 C 11.882812 -36.671875 12.445312 -36.421875 12.9375 -35.921875 C 13.382812 -35.429688 13.609375 -34.804688 13.609375 -34.046875 C 14.378906 -34.898438 15.300781 -35.617188 16.375 -36.203125 C 17.457031 -36.785156 18.785156 -37.078125 20.359375 -37.078125 C 22.609375 -37.078125 24.582031 -36.59375 26.28125 -35.625 C 27.988281 -34.65625 29.628906 -33.429688 31.203125 -31.953125 C 31.703125 -31.503906 31.960938 -30.972656 31.984375 -30.359375 C 32.003906 -29.753906 31.835938 -29.179688 31.484375 -28.640625 L 27.640625 -22.515625 C 27.273438 -21.929688 26.722656 -21.570312 25.984375 -21.4375 C 25.242188 -21.300781 24.535156 -21.410156 23.859375 -21.765625 C 23.234375 -22.128906 22.628906 -22.390625 22.046875 -22.546875 C 21.460938 -22.703125 20.8125 -22.78125 20.09375 -22.78125 C 17.84375 -22.78125 16.300781 -22.34375 15.46875 -21.46875 C 14.632812 -20.59375 14.148438 -19.523438 14.015625 -18.265625 L 14.359375 -2.625 C 14.453125 -1.90625 14.226562 -1.273438 13.6875 -0.734375 C 13.238281 -0.203125 12.675781 0.0625 12 0.0625 Z M 2.421875 0.140625 "/></g></g></g><g fill="#000000" fill-opacity="1"><g transform="translate(185.795445, 173.430399)"><g><path d="M 22.375 1.21875 C 20.894531 1.21875 20.265625 0.25 20.484375 -1.6875 C 16.804688 0.519531 13.035156 1.351562 9.171875 0.8125 C 6.960938 0.5 5.207031 -0.128906 3.90625 -1.078125 C 2.601562 -2.023438 1.660156 -3.140625 1.078125 -4.421875 C 0.492188 -5.703125 0.164062 -7.015625 0.09375 -8.359375 C 0.03125 -9.703125 0.0859375 -10.9375 0.265625 -12.0625 C 0.628906 -13.90625 1.492188 -15.441406 2.859375 -16.671875 C 4.234375 -17.910156 5.894531 -18.878906 7.84375 -19.578125 C 9.800781 -20.273438 11.769531 -20.671875 13.75 -20.765625 L 20.484375 -21.171875 C 20.398438 -22.421875 20.289062 -23.414062 20.15625 -24.15625 C 20.019531 -24.90625 19.644531 -25.425781 19.03125 -25.71875 C 18.425781 -26.007812 17.296875 -26.132812 15.640625 -26.09375 C 14.878906 -26.09375 14.304688 -25.890625 13.921875 -25.484375 C 13.535156 -25.078125 13.21875 -24.625 12.96875 -24.125 C 12.726562 -23.632812 12.460938 -23.207031 12.171875 -22.84375 C 11.878906 -22.488281 11.441406 -22.359375 10.859375 -22.453125 L 3.578125 -23.390625 C 2.941406 -23.484375 2.457031 -23.628906 2.125 -23.828125 C 1.789062 -24.023438 1.625 -24.394531 1.625 -24.9375 C 1.625 -26.601562 1.835938 -28.144531 2.265625 -29.5625 C 2.691406 -30.976562 3.566406 -32.210938 4.890625 -33.265625 C 6.210938 -34.316406 8.203125 -35.132812 10.859375 -35.71875 C 13.640625 -36.351562 16.332031 -36.644531 18.9375 -36.59375 C 21.539062 -36.550781 23.910156 -36.132812 26.046875 -35.34375 C 28.179688 -34.5625 29.929688 -33.363281 31.296875 -31.75 C 32.671875 -30.132812 33.519531 -28.046875 33.84375 -25.484375 C 33.882812 -25.117188 33.925781 -23.800781 33.96875 -21.53125 C 34.019531 -19.257812 34.066406 -16.335938 34.109375 -12.765625 C 34.148438 -9.203125 34.171875 -5.257812 34.171875 -0.9375 C 34.265625 -0.3125 34.050781 0.1875 33.53125 0.5625 C 33.019531 0.945312 32.5625 1.140625 32.15625 1.140625 Z M 18.203125 -14.625 C 16.804688 -14.625 15.769531 -14.265625 15.09375 -13.546875 C 14.425781 -12.828125 14.101562 -11.984375 14.125 -11.015625 C 14.144531 -10.054688 14.515625 -9.21875 15.234375 -8.5 C 15.953125 -7.78125 17.007812 -7.421875 18.40625 -7.421875 C 19.207031 -7.421875 19.609375 -7.734375 19.609375 -8.359375 L 19.609375 -13.6875 C 19.609375 -14.3125 19.140625 -14.625 18.203125 -14.625 Z M 18.203125 -14.625 "/></g></g></g><g fill="#000000" fill-opacity="1"><g transform="translate(222.667086, 173.430399)"><g><path d="M 23.734375 0.9375 C 21.390625 1.476562 18.984375 1.644531 16.515625 1.4375 C 14.046875 1.238281 11.734375 0.671875 9.578125 -0.265625 C 7.421875 -1.210938 5.617188 -2.515625 4.171875 -4.171875 C 2.285156 -6.421875 1.050781 -9.128906 0.46875 -12.296875 C -0.113281 -15.460938 -0.132812 -18.617188 0.40625 -21.765625 C 1.082031 -25.273438 2.460938 -28.234375 4.546875 -30.640625 C 6.640625 -33.046875 9.257812 -34.71875 12.40625 -35.65625 C 15.550781 -36.601562 19.007812 -36.601562 22.78125 -35.65625 C 25.300781 -35.070312 27.265625 -34.226562 28.671875 -33.125 C 30.085938 -32.03125 31.097656 -30.785156 31.703125 -29.390625 C 32.316406 -27.992188 32.691406 -26.597656 32.828125 -25.203125 C 32.960938 -23.816406 32.984375 -22.539062 32.890625 -21.375 C 32.847656 -20.332031 32.148438 -19.742188 30.796875 -19.609375 L 22.515625 -19.40625 C 21.929688 -19.320312 21.398438 -19.457031 20.921875 -19.8125 C 20.453125 -20.175781 20.195312 -20.628906 20.15625 -21.171875 C 20.15625 -21.390625 20.117188 -21.753906 20.046875 -22.265625 C 19.984375 -22.785156 19.859375 -23.316406 19.671875 -23.859375 C 19.492188 -24.398438 19.179688 -24.757812 18.734375 -24.9375 C 17.523438 -25.382812 16.601562 -25.28125 15.96875 -24.625 C 15.34375 -23.976562 14.90625 -22.957031 14.65625 -21.5625 C 14.414062 -20.175781 14.296875 -18.5625 14.296875 -16.71875 L 14.296875 -16.453125 C 14.335938 -13.835938 14.804688 -11.898438 15.703125 -10.640625 C 16.597656 -9.390625 17.945312 -9.101562 19.75 -9.78125 C 20.15625 -10 20.457031 -10.363281 20.65625 -10.875 C 20.863281 -11.394531 21 -11.925781 21.0625 -12.46875 C 21.132812 -13.007812 21.171875 -13.390625 21.171875 -13.609375 C 21.210938 -14.109375 21.46875 -14.535156 21.9375 -14.890625 C 22.414062 -15.253906 22.945312 -15.390625 23.53125 -15.296875 L 31.75 -15.09375 C 33.050781 -14.957031 33.769531 -14.351562 33.90625 -13.28125 C 33.945312 -12.15625 33.898438 -10.894531 33.765625 -9.5 C 33.628906 -8.113281 33.257812 -6.734375 32.65625 -5.359375 C 32.050781 -3.984375 31.039062 -2.734375 29.625 -1.609375 C 28.207031 -0.492188 26.242188 0.351562 23.734375 0.9375 Z M 23.734375 0.9375 "/></g></g></g><g fill="#000000" fill-opacity="1"><g transform="translate(259.33652, 173.430399)"><g><path d="M 22.375 1.21875 C 20.894531 1.21875 20.265625 0.25 20.484375 -1.6875 C 16.804688 0.519531 13.035156 1.351562 9.171875 0.8125 C 6.960938 0.5 5.207031 -0.128906 3.90625 -1.078125 C 2.601562 -2.023438 1.660156 -3.140625 1.078125 -4.421875 C 0.492188 -5.703125 0.164062 -7.015625 0.09375 -8.359375 C 0.03125 -9.703125 0.0859375 -10.9375 0.265625 -12.0625 C 0.628906 -13.90625 1.492188 -15.441406 2.859375 -16.671875 C 4.234375 -17.910156 5.894531 -18.878906 7.84375 -19.578125 C 9.800781 -20.273438 11.769531 -20.671875 13.75 -20.765625 L 20.484375 -21.171875 C 20.398438 -22.421875 20.289062 -23.414062 20.15625 -24.15625 C 20.019531 -24.90625 19.644531 -25.425781 19.03125 -25.71875 C 18.425781 -26.007812 17.296875 -26.132812 15.640625 -26.09375 C 14.878906 -26.09375 14.304688 -25.890625 13.921875 -25.484375 C 13.535156 -25.078125 13.21875 -24.625 12.96875 -24.125 C 12.726562 -23.632812 12.460938 -23.207031 12.171875 -22.84375 C 11.878906 -22.488281 11.441406 -22.359375 10.859375 -22.453125 L 3.578125 -23.390625 C 2.941406 -23.484375 2.457031 -23.628906 2.125 -23.828125 C 1.789062 -24.023438 1.625 -24.394531 1.625 -24.9375 C 1.625 -26.601562 1.835938 -28.144531 2.265625 -29.5625 C 2.691406 -30.976562 3.566406 -32.210938 4.890625 -33.265625 C 6.210938 -34.316406 8.203125 -35.132812 10.859375 -35.71875 C 13.640625 -36.351562 16.332031 -36.644531 18.9375 -36.59375 C 21.539062 -36.550781 23.910156 -36.132812 26.046875 -35.34375 C 28.179688 -34.5625 29.929688 -33.363281 31.296875 -31.75 C 32.671875 -30.132812 33.519531 -28.046875 33.84375 -25.484375 C 33.882812 -25.117188 33.925781 -23.800781 33.96875 -21.53125 C 34.019531 -19.257812 34.066406 -16.335938 34.109375 -12.765625 C 34.148438 -9.203125 34.171875 -5.257812 34.171875 -0.9375 C 34.265625 -0.3125 34.050781 0.1875 33.53125 0.5625 C 33.019531 0.945312 32.5625 1.140625 32.15625 1.140625 Z M 8.15625 -41.859375 C 7.53125 -42.847656 7.664062 -43.847656 8.5625 -44.859375 C 9.457031 -45.867188 10.554688 -46.710938 11.859375 -47.390625 C 12.804688 -47.878906 13.640625 -48.125 14.359375 -48.125 C 15.078125 -48.125 15.796875 -47.988281 16.515625 -47.71875 C 17.234375 -47.445312 18.066406 -47.15625 19.015625 -46.84375 C 19.816406 -46.570312 20.554688 -46.523438 21.234375 -46.703125 C 21.910156 -46.890625 22.523438 -47.140625 23.078125 -47.453125 C 23.640625 -47.765625 24.15625 -47.96875 24.625 -48.0625 C 25.101562 -48.15625 25.546875 -47.972656 25.953125 -47.515625 C 27.253906 -46.035156 27.859375 -44.832031 27.765625 -43.90625 C 27.679688 -42.988281 27.222656 -42.257812 26.390625 -41.71875 C 25.554688 -41.1875 24.625 -40.691406 23.59375 -40.234375 C 22.875 -39.921875 22.109375 -39.832031 21.296875 -39.96875 C 20.492188 -40.101562 19.664062 -40.28125 18.8125 -40.5 C 17.957031 -40.726562 17.085938 -40.875 16.203125 -40.9375 C 15.328125 -41.007812 14.441406 -40.820312 13.546875 -40.375 C 12.691406 -39.832031 11.925781 -39.609375 11.25 -39.703125 C 10.582031 -39.796875 10 -40.066406 9.5 -40.515625 C 9.007812 -40.960938 8.5625 -41.410156 8.15625 -41.859375 Z M 18.203125 -14.625 C 16.804688 -14.625 15.769531 -14.265625 15.09375 -13.546875 C 14.425781 -12.828125 14.101562 -11.984375 14.125 -11.015625 C 14.144531 -10.054688 14.515625 -9.21875 15.234375 -8.5 C 15.953125 -7.78125 17.007812 -7.421875 18.40625 -7.421875 C 19.207031 -7.421875 19.609375 -7.734375 19.609375 -8.359375 L 19.609375 -13.6875 C 19.609375 -14.3125 19.140625 -14.625 18.203125 -14.625 Z M 18.203125 -14.625 "/></g></g></g><g fill="#000000" fill-opacity="1"><g transform="translate(295.197049, 173.430399)"><g><path d="M 12.40625 0.34375 C 9.394531 -0.46875 7 -1.503906 5.21875 -2.765625 C 3.445312 -4.023438 2.164062 -5.71875 1.375 -7.84375 C 0.59375 -9.976562 0.132812 -12.710938 0 -16.046875 C 0.132812 -19.410156 0.601562 -22.40625 1.40625 -25.03125 C 2.21875 -27.664062 3.5 -29.878906 5.25 -31.671875 C 7.007812 -33.472656 9.394531 -34.800781 12.40625 -35.65625 C 13.925781 -36.101562 15.675781 -36.347656 17.65625 -36.390625 C 19.632812 -36.441406 21.585938 -36.285156 23.515625 -35.921875 C 25.453125 -35.566406 27.140625 -34.984375 28.578125 -34.171875 C 31.722656 -32.421875 33.832031 -30.050781 34.90625 -27.0625 C 35.988281 -24.070312 36.617188 -20.535156 36.796875 -16.453125 C 36.796875 -13.304688 36.210938 -10.414062 35.046875 -7.78125 C 33.878906 -5.15625 31.722656 -2.96875 28.578125 -1.21875 C 27.140625 -0.445312 25.453125 0.113281 23.515625 0.46875 C 21.585938 0.832031 19.632812 0.988281 17.65625 0.9375 C 15.675781 0.894531 13.925781 0.695312 12.40625 0.34375 Z M 14.421875 -17.1875 C 14.472656 -15.070312 14.890625 -13.460938 15.671875 -12.359375 C 16.453125 -11.265625 17.347656 -10.691406 18.359375 -10.640625 C 19.378906 -10.597656 20.300781 -11.09375 21.125 -12.125 C 21.957031 -13.164062 22.421875 -14.71875 22.515625 -16.78125 C 22.515625 -19.476562 22.097656 -21.546875 21.265625 -22.984375 C 20.429688 -24.421875 19.484375 -25.179688 18.421875 -25.265625 C 17.367188 -25.359375 16.4375 -24.742188 15.625 -23.421875 C 14.820312 -22.097656 14.421875 -20.019531 14.421875 -17.1875 Z M 14.421875 -17.1875 "/></g></g></g><g fill="#000000" fill-opacity="1"><g transform="translate(334.712422, 173.430399)"><g/></g></g><g fill="#000000" fill-opacity="1"><g transform="translate(131.889063, 200.953773)"><g><path d="M 8.3125 0.03125 C 8.082031 0.03125 7.878906 -0.0664062 7.703125 -0.265625 C 7.703125 -0.265625 7.695312 -0.265625 7.6875 -0.265625 C 7.675781 -0.265625 7.671875 -0.273438 7.671875 -0.296875 C 6.109375 0.109375 4.785156 0.234375 3.703125 0.078125 C 2.617188 -0.0664062 1.800781 -0.625 1.25 -1.59375 C 0.738281 -2.488281 0.375 -3.523438 0.15625 -4.703125 C -0.0625 -5.878906 -0.0703125 -7.015625 0.125 -8.109375 C 0.332031 -9.316406 0.738281 -10.335938 1.34375 -11.171875 C 1.945312 -12.015625 2.773438 -12.613281 3.828125 -12.96875 C 4.890625 -13.332031 6.210938 -13.375 7.796875 -13.09375 L 7.890625 -16.171875 C 7.890625 -16.453125 7.972656 -16.679688 8.140625 -16.859375 C 8.316406 -17.035156 8.519531 -17.125 8.75 -17.125 L 11.859375 -17.15625 C 12.078125 -17.15625 12.269531 -17.054688 12.4375 -16.859375 C 12.601562 -16.679688 12.6875 -16.460938 12.6875 -16.203125 L 12.640625 -0.90625 C 12.640625 -0.613281 12.554688 -0.382812 12.390625 -0.21875 C 12.210938 -0.0390625 12.015625 0.046875 11.796875 0.046875 Z M 4.953125 -6.234375 C 4.972656 -5.304688 5.160156 -4.617188 5.515625 -4.171875 C 5.878906 -3.734375 6.382812 -3.640625 7.03125 -3.890625 C 7.226562 -3.953125 7.363281 -4.054688 7.4375 -4.203125 C 7.507812 -4.347656 7.554688 -4.550781 7.578125 -4.8125 L 7.578125 -5.375 L 7.65625 -7.796875 L 7.65625 -7.84375 C 7.664062 -8.039062 7.578125 -8.289062 7.390625 -8.59375 C 7.203125 -8.90625 6.992188 -9.117188 6.765625 -9.234375 C 6.328125 -9.398438 5.976562 -9.363281 5.71875 -9.125 C 5.457031 -8.882812 5.265625 -8.519531 5.140625 -8.03125 C 5.015625 -7.550781 4.953125 -6.984375 4.953125 -6.328125 Z M 4.953125 -6.234375 "/></g></g></g><g fill="#000000" fill-opacity="1"><g transform="translate(145.546077, 200.953773)"><g><path d="M 8.109375 0.4375 C 7.578125 0.4375 7.347656 0.0859375 7.421875 -0.609375 C 6.085938 0.191406 4.722656 0.492188 3.328125 0.296875 C 2.523438 0.179688 1.882812 -0.046875 1.40625 -0.390625 C 0.9375 -0.734375 0.597656 -1.132812 0.390625 -1.59375 C 0.179688 -2.0625 0.0625 -2.539062 0.03125 -3.03125 C 0.0078125 -3.519531 0.03125 -3.96875 0.09375 -4.375 C 0.226562 -5.039062 0.539062 -5.597656 1.03125 -6.046875 C 1.53125 -6.492188 2.132812 -6.84375 2.84375 -7.09375 C 3.550781 -7.351562 4.265625 -7.5 4.984375 -7.53125 L 7.421875 -7.671875 C 7.390625 -8.128906 7.347656 -8.488281 7.296875 -8.75 C 7.253906 -9.019531 7.125 -9.207031 6.90625 -9.3125 C 6.6875 -9.425781 6.273438 -9.472656 5.671875 -9.453125 C 5.390625 -9.453125 5.179688 -9.378906 5.046875 -9.234375 C 4.910156 -9.085938 4.796875 -8.925781 4.703125 -8.75 C 4.609375 -8.570312 4.507812 -8.414062 4.40625 -8.28125 C 4.300781 -8.15625 4.144531 -8.109375 3.9375 -8.140625 L 1.296875 -8.484375 C 1.066406 -8.515625 0.890625 -8.566406 0.765625 -8.640625 C 0.648438 -8.710938 0.59375 -8.847656 0.59375 -9.046875 C 0.59375 -9.648438 0.664062 -10.207031 0.8125 -10.71875 C 0.96875 -11.226562 1.285156 -11.675781 1.765625 -12.0625 C 2.253906 -12.445312 2.976562 -12.742188 3.9375 -12.953125 C 4.945312 -13.179688 5.921875 -13.285156 6.859375 -13.265625 C 7.804688 -13.253906 8.664062 -13.101562 9.4375 -12.8125 C 10.21875 -12.53125 10.851562 -12.09375 11.34375 -11.5 C 11.84375 -10.914062 12.148438 -10.160156 12.265625 -9.234375 C 12.285156 -9.109375 12.300781 -8.632812 12.3125 -7.8125 C 12.332031 -6.988281 12.347656 -5.925781 12.359375 -4.625 C 12.378906 -3.332031 12.390625 -1.90625 12.390625 -0.34375 C 12.421875 -0.113281 12.34375 0.0664062 12.15625 0.203125 C 11.96875 0.347656 11.800781 0.421875 11.65625 0.421875 Z M 6.59375 -5.296875 C 6.09375 -5.296875 5.71875 -5.164062 5.46875 -4.90625 C 5.226562 -4.644531 5.109375 -4.335938 5.109375 -3.984375 C 5.117188 -3.640625 5.253906 -3.335938 5.515625 -3.078125 C 5.773438 -2.816406 6.160156 -2.6875 6.671875 -2.6875 C 6.960938 -2.6875 7.109375 -2.800781 7.109375 -3.03125 L 7.109375 -4.953125 C 7.109375 -5.179688 6.9375 -5.296875 6.59375 -5.296875 Z M 6.59375 -5.296875 "/></g></g></g><g fill="#000000" fill-opacity="1"><g transform="translate(161.516345, 235.146266)"><g><path d="M 10.96875 -51.46875 C 12.445312 -53.851562 14.128906 -55.625 16.015625 -56.78125 C 17.898438 -57.945312 19.765625 -58.546875 21.609375 -58.578125 C 23.453125 -58.617188 25.113281 -58.160156 26.59375 -57.203125 C 28.082031 -56.253906 29.179688 -54.828125 29.890625 -52.921875 C 30.609375 -51.023438 30.707031 -48.726562 30.1875 -46.03125 C 29.550781 -41.9375 28.117188 -38.203125 25.890625 -34.828125 C 23.660156 -31.460938 21.050781 -28.539062 18.0625 -26.0625 C 15.082031 -23.582031 12.0625 -21.585938 9 -20.078125 C 8.707031 -19.003906 8.378906 -17.664062 8.015625 -16.0625 C 7.660156 -14.457031 7.34375 -12.898438 7.0625 -11.390625 C 8.457031 -11.109375 10.132812 -10.804688 12.09375 -10.484375 C 14.050781 -10.160156 16.070312 -10.132812 18.15625 -10.40625 C 20.25 -10.675781 22.21875 -11.492188 24.0625 -12.859375 C 25.914062 -14.234375 27.460938 -16.453125 28.703125 -19.515625 C 28.859375 -19.859375 29.203125 -19.953125 29.734375 -19.796875 C 30.265625 -19.648438 30.742188 -19.40625 31.171875 -19.0625 C 31.609375 -18.71875 31.78125 -18.375 31.6875 -18.03125 C 30.613281 -15.15625 29.347656 -12.921875 27.890625 -11.328125 C 26.441406 -9.742188 24.863281 -8.585938 23.15625 -7.859375 C 21.445312 -7.128906 19.6875 -6.703125 17.875 -6.578125 C 16.070312 -6.460938 14.300781 -6.457031 12.5625 -6.5625 C 14.65625 -4.34375 16.070312 -1.796875 16.8125 1.078125 C 17.5625 3.960938 17.765625 6.859375 17.421875 9.765625 C 17.078125 12.671875 16.25 15.289062 14.9375 17.625 C 13.78125 19.738281 12.289062 21.398438 10.46875 22.609375 C 8.644531 23.816406 6.476562 24.4375 3.96875 24.46875 C 0.5625 24.539062 -1.800781 23.550781 -3.125 21.5 C -4.457031 19.445312 -5.078125 16.550781 -4.984375 12.8125 C -4.929688 9.582031 -4.523438 5.3125 -3.765625 0 C -3.003906 -5.300781 -1.972656 -10.898438 -0.671875 -16.796875 C 0.910156 -23.835938 2.679688 -30.421875 4.640625 -36.546875 C 6.609375 -42.671875 8.71875 -47.644531 10.96875 -51.46875 Z M 17.6875 -48.34375 C 16.957031 -46.863281 16.160156 -44.953125 15.296875 -42.609375 C 14.429688 -40.265625 13.5625 -37.695312 12.6875 -34.90625 C 11.8125 -32.113281 11.015625 -29.253906 10.296875 -26.328125 C 13.316406 -28.722656 15.988281 -31.816406 18.3125 -35.609375 C 20.644531 -39.398438 22.179688 -43.347656 22.921875 -47.453125 C 23.253906 -49.191406 23.171875 -50.457031 22.671875 -51.25 C 22.171875 -52.039062 21.460938 -52.238281 20.546875 -51.84375 C 19.640625 -51.445312 18.6875 -50.28125 17.6875 -48.34375 Z M 5.75 -5.578125 C 5.320312 -3.492188 4.910156 -1.242188 4.515625 1.171875 C 4.128906 3.585938 3.804688 5.914062 3.546875 8.15625 C 3.296875 10.40625 3.171875 12.335938 3.171875 13.953125 C 3.191406 16.015625 3.5625 17.320312 4.28125 17.875 C 5 18.4375 5.816406 18.328125 6.734375 17.546875 C 7.660156 16.765625 8.421875 15.414062 9.015625 13.5 C 9.617188 11.46875 9.988281 9.25 10.125 6.84375 C 10.257812 4.4375 10.007812 2.117188 9.375 -0.109375 C 8.738281 -2.347656 7.53125 -4.171875 5.75 -5.578125 Z M 5.75 -5.578125 "/></g></g></g><g fill="#000000" fill-opacity="1"><g transform="translate(190.365667, 234.119526)"><g><path d="M 19.96875 -36.21875 C 23.101562 -36.21875 25.53125 -35.503906 27.25 -34.078125 C 28.976562 -32.660156 30.019531 -30.894531 30.375 -28.78125 C 30.726562 -26.675781 30.410156 -24.578125 29.421875 -22.484375 C 27.972656 -19.296875 25.414062 -16.976562 21.75 -15.53125 C 18.09375 -14.09375 13.820312 -13.847656 8.9375 -14.796875 C 8.8125 -12.117188 9.515625 -9.984375 11.046875 -8.390625 C 12.578125 -6.796875 14.796875 -5.914062 17.703125 -5.75 C 19.609375 -5.644531 21.75 -5.984375 24.125 -6.765625 C 26.5 -7.546875 28.804688 -8.976562 31.046875 -11.0625 C 33.285156 -13.144531 35.144531 -16.054688 36.625 -19.796875 C 36.78125 -20.140625 37.140625 -20.234375 37.703125 -20.078125 C 38.265625 -19.929688 38.773438 -19.671875 39.234375 -19.296875 C 39.703125 -18.921875 39.859375 -18.566406 39.703125 -18.234375 C 38.160156 -14.390625 36.414062 -11.257812 34.46875 -8.84375 C 32.53125 -6.425781 30.476562 -4.550781 28.3125 -3.21875 C 26.144531 -1.882812 23.984375 -0.96875 21.828125 -0.46875 C 19.671875 0.0195312 17.585938 0.273438 15.578125 0.296875 C 11.347656 0.328125 7.972656 -0.53125 5.453125 -2.28125 C 2.929688 -4.039062 1.21875 -6.3125 0.3125 -9.09375 C -0.59375 -11.875 -0.769531 -14.835938 -0.21875 -17.984375 C 0.425781 -21.703125 1.71875 -24.921875 3.65625 -27.640625 C 5.601562 -30.359375 8 -32.460938 10.84375 -33.953125 C 13.695312 -35.453125 16.738281 -36.207031 19.96875 -36.21875 Z M 19.109375 -30.234375 C 17.804688 -30.296875 16.476562 -29.816406 15.125 -28.796875 C 13.769531 -27.773438 12.582031 -26.40625 11.5625 -24.6875 C 10.539062 -22.976562 9.8125 -21.113281 9.375 -19.09375 C 12.5 -18.75 15.0625 -19.085938 17.0625 -20.109375 C 19.0625 -21.128906 20.453125 -22.570312 21.234375 -24.4375 C 21.847656 -25.863281 22.050781 -27.1875 21.84375 -28.40625 C 21.632812 -29.625 20.722656 -30.234375 19.109375 -30.234375 Z M 19.109375 -30.234375 "/></g></g></g><g fill="#000000" fill-opacity="1"><g transform="translate(227.159004, 232.810061)"><g><path d="M 10.1875 -40.875 C 8.789062 -40.832031 7.640625 -41.28125 6.734375 -42.21875 C 5.835938 -43.164062 5.476562 -44.367188 5.65625 -45.828125 C 5.882812 -47.347656 6.507812 -48.597656 7.53125 -49.578125 C 8.5625 -50.566406 9.851562 -51.0625 11.40625 -51.0625 C 12.914062 -51.113281 14.101562 -50.679688 14.96875 -49.765625 C 15.832031 -48.847656 16.179688 -47.65625 16.015625 -46.1875 C 15.898438 -44.6875 15.316406 -43.441406 14.265625 -42.453125 C 13.210938 -41.460938 11.851562 -40.9375 10.1875 -40.875 Z M 5.296875 0.5625 C 1.835938 0.75 -0.394531 -0.0859375 -1.40625 -1.953125 C -2.425781 -3.828125 -2.628906 -6.390625 -2.015625 -9.640625 C -1.210938 -13.617188 -0.347656 -17.5 0.578125 -21.28125 C 1.503906 -25.0625 2.609375 -29.515625 3.890625 -34.640625 C 4.203125 -35.148438 4.800781 -35.488281 5.6875 -35.65625 C 6.570312 -35.832031 7.519531 -35.867188 8.53125 -35.765625 C 9.539062 -35.660156 10.4375 -35.441406 11.21875 -35.109375 C 12.007812 -34.773438 12.5 -34.363281 12.6875 -33.875 C 11.757812 -29.976562 10.957031 -26.664062 10.28125 -23.9375 C 9.601562 -21.207031 9.019531 -18.828125 8.53125 -16.796875 C 8.039062 -14.765625 7.609375 -12.796875 7.234375 -10.890625 C 6.960938 -9.203125 6.875 -7.84375 6.96875 -6.8125 C 7.0625 -5.789062 7.550781 -5.328125 8.4375 -5.421875 C 9.71875 -5.460938 11.097656 -6.148438 12.578125 -7.484375 C 14.066406 -8.816406 15.484375 -10.523438 16.828125 -12.609375 C 18.179688 -14.691406 19.289062 -16.890625 20.15625 -19.203125 C 20.3125 -19.609375 20.671875 -19.722656 21.234375 -19.546875 C 21.804688 -19.367188 22.304688 -19.09375 22.734375 -18.71875 C 23.171875 -18.34375 23.3125 -17.957031 23.15625 -17.5625 C 22.320312 -15.632812 21.34375 -13.644531 20.21875 -11.59375 C 19.09375 -9.550781 17.78125 -7.625 16.28125 -5.8125 C 14.78125 -4 13.117188 -2.515625 11.296875 -1.359375 C 9.472656 -0.203125 7.472656 0.4375 5.296875 0.5625 Z M 5.296875 0.5625 "/></g></g></g><g fill="#000000" fill-opacity="1"><g transform="translate(247.47895, 232.08688)"><g><path d="M 1.671875 -14.125 C 1.515625 -13.78125 1.140625 -13.664062 0.546875 -13.78125 C -0.0351562 -13.894531 -0.539062 -14.140625 -0.96875 -14.515625 C -1.40625 -14.898438 -1.550781 -15.257812 -1.40625 -15.59375 C -0.351562 -17.925781 0.539062 -20.039062 1.28125 -21.9375 C 2.019531 -23.832031 2.6875 -25.769531 3.28125 -27.75 C 3.875 -29.726562 4.46875 -31.925781 5.0625 -34.34375 C 3.769531 -36.070312 3.070312 -37.617188 2.96875 -38.984375 C 2.863281 -40.359375 3.128906 -41.515625 3.765625 -42.453125 C 4.410156 -43.390625 5.210938 -44.046875 6.171875 -44.421875 C 7.128906 -44.796875 8.078125 -44.828125 9.015625 -44.515625 C 9.953125 -44.210938 10.644531 -43.523438 11.09375 -42.453125 C 11.539062 -41.378906 11.550781 -39.832031 11.125 -37.8125 C 12.332031 -36.632812 13.671875 -35.441406 15.140625 -34.234375 C 16.609375 -33.035156 17.9375 -31.800781 19.125 -30.53125 C 20.320312 -29.257812 21.109375 -27.972656 21.484375 -26.671875 C 21.867188 -25.378906 21.554688 -24.046875 20.546875 -22.671875 C 19.054688 -20.597656 17.707031 -18.453125 16.5 -16.234375 C 15.289062 -14.015625 14.664062 -11.929688 14.625 -9.984375 C 14.613281 -8.753906 14.875 -7.742188 15.40625 -6.953125 C 15.9375 -6.160156 16.867188 -5.789062 18.203125 -5.84375 C 19.546875 -5.882812 21.050781 -6.367188 22.71875 -7.296875 C 24.382812 -8.222656 26.0625 -9.703125 27.75 -11.734375 C 29.445312 -13.773438 30.988281 -16.441406 32.375 -19.734375 C 32.53125 -20.078125 32.863281 -20.15625 33.375 -19.96875 C 33.882812 -19.789062 34.367188 -19.515625 34.828125 -19.140625 C 35.285156 -18.765625 35.4375 -18.410156 35.28125 -18.078125 C 33.945312 -14.742188 32.335938 -11.703125 30.453125 -8.953125 C 28.566406 -6.203125 26.367188 -4.015625 23.859375 -2.390625 C 21.347656 -0.773438 18.445312 0.09375 15.15625 0.21875 C 11.9375 0.28125 9.484375 -0.507812 7.796875 -2.15625 C 6.117188 -3.800781 5.234375 -5.90625 5.140625 -8.46875 C 5.046875 -11.132812 5.691406 -13.847656 7.078125 -16.609375 C 8.460938 -19.367188 9.941406 -22.003906 11.515625 -24.515625 C 12.148438 -25.546875 12.265625 -26.515625 11.859375 -27.421875 C 11.460938 -28.328125 10.878906 -29.1875 10.109375 -30 C 9.335938 -30.8125 8.628906 -31.539062 7.984375 -32.1875 C 7.359375 -29.425781 6.539062 -26.5625 5.53125 -23.59375 C 4.519531 -20.632812 3.234375 -17.476562 1.671875 -14.125 Z M 1.671875 -14.125 "/></g></g></g><g fill="#000000" fill-opacity="1"><g transform="translate(279.923979, 230.93217)"><g><path d="M 18.625 -36.078125 C 20.457031 -36.484375 22.503906 -36.640625 24.765625 -36.546875 C 27.035156 -36.460938 29.257812 -36.066406 31.4375 -35.359375 C 33.613281 -34.660156 35.503906 -33.53125 37.109375 -31.96875 C 37.410156 -31.53125 37.320312 -30.898438 36.84375 -30.078125 C 36.375 -29.253906 35.785156 -28.535156 35.078125 -27.921875 C 34.378906 -27.304688 33.8125 -27.101562 33.375 -27.3125 C 31.59375 -28.644531 29.613281 -29.5625 27.4375 -30.0625 C 25.269531 -30.570312 23.21875 -30.65625 21.28125 -30.3125 C 18.894531 -29.894531 16.644531 -28.6875 14.53125 -26.6875 C 12.425781 -24.6875 10.789062 -22.265625 9.625 -19.421875 C 8.425781 -16.648438 7.757812 -14.007812 7.625 -11.5 C 7.5 -8.988281 7.925781 -7.273438 8.90625 -6.359375 C 9.945312 -5.378906 11.175781 -5.347656 12.59375 -6.265625 C 14.007812 -7.179688 15.429688 -8.691406 16.859375 -10.796875 C 18.296875 -12.910156 19.601562 -15.34375 20.78125 -18.09375 C 21.96875 -20.851562 22.878906 -23.585938 23.515625 -26.296875 C 23.878906 -26.804688 24.476562 -27.101562 25.3125 -27.1875 C 26.15625 -27.28125 27.039062 -27.226562 27.96875 -27.03125 C 28.90625 -26.84375 29.722656 -26.566406 30.421875 -26.203125 C 31.128906 -25.835938 31.523438 -25.429688 31.609375 -24.984375 C 31.210938 -23.398438 30.734375 -21.453125 30.171875 -19.140625 C 29.617188 -16.835938 29.179688 -14.65625 28.859375 -12.59375 C 28.117188 -8.488281 28.695312 -6.46875 30.59375 -6.53125 C 31.632812 -6.625 32.859375 -7.269531 34.265625 -8.46875 C 35.679688 -9.664062 37.078125 -11.273438 38.453125 -13.296875 C 39.828125 -15.316406 40.976562 -17.546875 41.90625 -19.984375 C 42.0625 -20.328125 42.40625 -20.421875 42.9375 -20.265625 C 43.476562 -20.117188 43.976562 -19.859375 44.4375 -19.484375 C 44.894531 -19.109375 45.046875 -18.753906 44.890625 -18.421875 C 43.546875 -15.359375 41.957031 -12.484375 40.125 -9.796875 C 38.289062 -7.109375 36.257812 -4.929688 34.03125 -3.265625 C 31.8125 -1.597656 29.394531 -0.71875 26.78125 -0.625 C 24.769531 -0.550781 23.226562 -1.398438 22.15625 -3.171875 C 21.082031 -4.953125 20.742188 -7.382812 21.140625 -10.46875 C 20.253906 -8.769531 19.222656 -7.097656 18.046875 -5.453125 C 16.878906 -3.816406 15.507812 -2.453125 13.9375 -1.359375 C 12.363281 -0.273438 10.429688 0.332031 8.140625 0.46875 C 6.140625 0.53125 4.320312 0.101562 2.6875 -0.8125 C 1.0625 -1.726562 -0.160156 -3.191406 -0.984375 -5.203125 C -1.804688 -7.210938 -2.023438 -9.78125 -1.640625 -12.90625 C -1.148438 -16.664062 0.109375 -20.1875 2.140625 -23.46875 C 4.171875 -26.757812 6.648438 -29.53125 9.578125 -31.78125 C 12.515625 -34.039062 15.53125 -35.472656 18.625 -36.078125 Z M 18.625 -36.078125 "/></g></g></g></svg>